<mxfile host="app.diagrams.net" modified="2022-06-28T15:02:04.123Z" agent="5.0 (Macintosh; Intel Mac OS X 10_15_7) AppleWebKit/537.36 (KHTML, like Gecko) Chrome/102.0.0.0 Safari/537.36" etag="N545Pk62LDUrkad2fm0y" version="18.1.3" type="github">
  <diagram id="NdM1k7HMA_us2tlnT0At" name="Page-1">
    <mxGraphModel dx="894" dy="543" grid="1" gridSize="10" guides="1" tooltips="1" connect="1" arrows="1" fold="1" page="1" pageScale="1" pageWidth="850" pageHeight="1100" math="0" shadow="0">
      <root>
        <mxCell id="0" />
        <mxCell id="1" parent="0" />
        <mxCell id="MLDrHnhKgjnesNrSPSTM-16" value="" style="edgeStyle=orthogonalEdgeStyle;curved=1;orthogonalLoop=1;jettySize=auto;html=1;exitX=1;exitY=0;exitDx=0;exitDy=0;" edge="1" parent="1" source="MLDrHnhKgjnesNrSPSTM-1" target="MLDrHnhKgjnesNrSPSTM-5">
          <mxGeometry relative="1" as="geometry">
            <mxPoint x="110" y="80" as="targetPoint" />
          </mxGeometry>
        </mxCell>
        <mxCell id="MLDrHnhKgjnesNrSPSTM-20" value="" style="edgeStyle=orthogonalEdgeStyle;curved=1;orthogonalLoop=1;jettySize=auto;html=1;entryX=0;entryY=0.5;entryDx=0;entryDy=0;" edge="1" parent="1" source="MLDrHnhKgjnesNrSPSTM-1" target="MLDrHnhKgjnesNrSPSTM-2">
          <mxGeometry relative="1" as="geometry">
            <mxPoint x="110" y="400" as="targetPoint" />
            <Array as="points">
              <mxPoint x="90" y="360" />
              <mxPoint x="160" y="360" />
              <mxPoint x="160" y="390" />
            </Array>
          </mxGeometry>
        </mxCell>
        <mxCell id="MLDrHnhKgjnesNrSPSTM-1" value="Perception" style="ellipse;whiteSpace=wrap;html=1;" vertex="1" parent="1">
          <mxGeometry x="50" y="230" width="120" height="80" as="geometry" />
        </mxCell>
        <mxCell id="MLDrHnhKgjnesNrSPSTM-22" value="" style="edgeStyle=orthogonalEdgeStyle;curved=1;orthogonalLoop=1;jettySize=auto;html=1;entryX=0;entryY=0.25;entryDx=0;entryDy=0;" edge="1" parent="1" source="MLDrHnhKgjnesNrSPSTM-2" target="MLDrHnhKgjnesNrSPSTM-6">
          <mxGeometry relative="1" as="geometry">
            <mxPoint x="240" y="510" as="targetPoint" />
          </mxGeometry>
        </mxCell>
        <mxCell id="MLDrHnhKgjnesNrSPSTM-2" value="Actor" style="ellipse;whiteSpace=wrap;html=1;" vertex="1" parent="1">
          <mxGeometry x="180" y="350" width="120" height="80" as="geometry" />
        </mxCell>
        <mxCell id="MLDrHnhKgjnesNrSPSTM-35" value="" style="edgeStyle=orthogonalEdgeStyle;curved=1;orthogonalLoop=1;jettySize=auto;html=1;startArrow=none;startFill=0;endArrow=classic;endFill=1;entryX=0.62;entryY=0.03;entryDx=0;entryDy=0;entryPerimeter=0;" edge="1" parent="1" source="MLDrHnhKgjnesNrSPSTM-5" target="MLDrHnhKgjnesNrSPSTM-33">
          <mxGeometry relative="1" as="geometry">
            <mxPoint x="650" y="180" as="targetPoint" />
          </mxGeometry>
        </mxCell>
        <mxCell id="MLDrHnhKgjnesNrSPSTM-5" value="World Model" style="ellipse;whiteSpace=wrap;html=1;" vertex="1" parent="1">
          <mxGeometry x="450" y="130" width="120" height="100" as="geometry" />
        </mxCell>
        <mxCell id="MLDrHnhKgjnesNrSPSTM-26" value="" style="edgeStyle=orthogonalEdgeStyle;curved=1;orthogonalLoop=1;jettySize=auto;html=1;startArrow=none;startFill=0;endArrow=classic;endFill=1;entryX=0;entryY=1;entryDx=0;entryDy=0;" edge="1" parent="1" source="MLDrHnhKgjnesNrSPSTM-6" target="MLDrHnhKgjnesNrSPSTM-1">
          <mxGeometry relative="1" as="geometry">
            <mxPoint x="160" y="460" as="targetPoint" />
          </mxGeometry>
        </mxCell>
        <mxCell id="MLDrHnhKgjnesNrSPSTM-6" value="" style="shape=image;html=1;verticalAlign=top;verticalLabelPosition=bottom;labelBackgroundColor=#ffffff;imageAspect=0;aspect=fixed;image=https://cdn2.iconfinder.com/data/icons/whcompare-isometric-web-hosting-servers/50/connected-globe-128.png" vertex="1" parent="1">
          <mxGeometry x="480" y="410" width="128" height="128" as="geometry" />
        </mxCell>
        <mxCell id="MLDrHnhKgjnesNrSPSTM-9" value="Configurator" style="ellipse;whiteSpace=wrap;html=1;" vertex="1" parent="1">
          <mxGeometry x="120" y="20" width="120" height="80" as="geometry" />
        </mxCell>
        <mxCell id="MLDrHnhKgjnesNrSPSTM-12" value="" style="edgeStyle=orthogonalEdgeStyle;curved=1;orthogonalLoop=1;jettySize=auto;html=1;" edge="1" parent="1" source="MLDrHnhKgjnesNrSPSTM-10" target="MLDrHnhKgjnesNrSPSTM-2">
          <mxGeometry relative="1" as="geometry" />
        </mxCell>
        <mxCell id="MLDrHnhKgjnesNrSPSTM-13" value="" style="edgeStyle=orthogonalEdgeStyle;curved=1;orthogonalLoop=1;jettySize=auto;html=1;entryX=1;entryY=0.5;entryDx=0;entryDy=0;" edge="1" parent="1" source="MLDrHnhKgjnesNrSPSTM-10" target="MLDrHnhKgjnesNrSPSTM-30">
          <mxGeometry relative="1" as="geometry">
            <mxPoint x="290" y="290" as="targetPoint" />
          </mxGeometry>
        </mxCell>
        <mxCell id="MLDrHnhKgjnesNrSPSTM-29" value="" style="edgeStyle=orthogonalEdgeStyle;curved=1;orthogonalLoop=1;jettySize=auto;html=1;startArrow=none;startFill=0;endArrow=classic;endFill=1;" edge="1" parent="1" source="MLDrHnhKgjnesNrSPSTM-10" target="MLDrHnhKgjnesNrSPSTM-27">
          <mxGeometry relative="1" as="geometry">
            <Array as="points">
              <mxPoint x="375" y="310" />
            </Array>
          </mxGeometry>
        </mxCell>
        <mxCell id="MLDrHnhKgjnesNrSPSTM-10" value="Self Model" style="ellipse;whiteSpace=wrap;html=1;" vertex="1" parent="1">
          <mxGeometry x="365" y="290" width="120" height="100" as="geometry" />
        </mxCell>
        <mxCell id="MLDrHnhKgjnesNrSPSTM-28" value="" style="edgeStyle=orthogonalEdgeStyle;curved=1;orthogonalLoop=1;jettySize=auto;html=1;startArrow=none;startFill=0;endArrow=classic;endFill=1;" edge="1" parent="1" source="MLDrHnhKgjnesNrSPSTM-27" target="MLDrHnhKgjnesNrSPSTM-5">
          <mxGeometry relative="1" as="geometry" />
        </mxCell>
        <mxCell id="MLDrHnhKgjnesNrSPSTM-27" value="Hypothesizer" style="ellipse;whiteSpace=wrap;html=1;" vertex="1" parent="1">
          <mxGeometry x="330" y="220" width="90" height="50" as="geometry" />
        </mxCell>
        <mxCell id="MLDrHnhKgjnesNrSPSTM-32" value="" style="edgeStyle=orthogonalEdgeStyle;curved=1;orthogonalLoop=1;jettySize=auto;html=1;startArrow=none;startFill=0;endArrow=classic;endFill=1;" edge="1" parent="1" source="MLDrHnhKgjnesNrSPSTM-30" target="MLDrHnhKgjnesNrSPSTM-1">
          <mxGeometry relative="1" as="geometry" />
        </mxCell>
        <mxCell id="MLDrHnhKgjnesNrSPSTM-30" value="Expectation" style="ellipse;whiteSpace=wrap;html=1;" vertex="1" parent="1">
          <mxGeometry x="200" y="260" width="100" height="50" as="geometry" />
        </mxCell>
        <mxCell id="MLDrHnhKgjnesNrSPSTM-36" value="" style="edgeStyle=orthogonalEdgeStyle;curved=1;orthogonalLoop=1;jettySize=auto;html=1;startArrow=none;startFill=0;endArrow=classic;endFill=1;entryX=0.95;entryY=0.735;entryDx=0;entryDy=0;entryPerimeter=0;" edge="1" parent="1" source="MLDrHnhKgjnesNrSPSTM-33" target="MLDrHnhKgjnesNrSPSTM-10">
          <mxGeometry relative="1" as="geometry" />
        </mxCell>
        <mxCell id="MLDrHnhKgjnesNrSPSTM-33" value="Explainer" style="ellipse;whiteSpace=wrap;html=1;" vertex="1" parent="1">
          <mxGeometry x="580" y="270" width="100" height="50" as="geometry" />
        </mxCell>
      </root>
    </mxGraphModel>
  </diagram>
</mxfile>
